<?xml version="1.0" encoding="UTF-8"?>
<svg id="svg8" version="1.1" viewBox="0 0 24 24" xmlns="http://www.w3.org/2000/svg" xmlns:cc="http://creativecommons.org/ns#" xmlns:dc="http://purl.org/dc/elements/1.1/" xmlns:rdf="http://www.w3.org/1999/02/22-rdf-syntax-ns#" xmlns:xlink="http://www.w3.org/1999/xlink">
 <defs id="defs2">
  <linearGradient id="linearGradient1004" x1="24" x2="0" y1="24" gradientUnits="userSpaceOnUse">
   <stop id="stop998" style="stop-color:#020024" offset="0"/>
   <stop id="stop1006" style="stop-color:#380979" offset=".25"/>
   <stop id="stop1000" style="stop-color:#00d4ff" offset="1"/>
  </linearGradient>
 </defs>
 <metadata id="metadata5">
  <rdf:RDF>
   <cc:Work rdf:about="">
    <dc:format>image/svg+xml</dc:format>
    <dc:type rdf:resource="http://purl.org/dc/dcmitype/StillImage"/>
    <dc:title/>
   </cc:Work>
  </rdf:RDF>
 </metadata>
 <g id="g1038">
  <path id="circle1034" d="m12 0a12 12 0 0 0-12 12 12 12 0 0 0 12 12 12 12 0 0 0 12-12 12 12 0 0 0-12-12zm-0.056641 1.1113c2.7911-1e-7 5.5825 1.061 7.7051 3.1836a1.2018 1.2018 0 0 1 0 1.6992 1.2018 1.2018 0 0 1-1.6992 0c-3.3267-3.3267-8.6851-3.3267-12.012 0-3.3267 3.3267-3.3267 8.6851 0 12.012s8.6851 3.3267 12.012 0a1.2018 1.2018 0 0 1 1.6992 0 1.2018 1.2018 0 0 1 0 1.6992c-4.2452 4.2452-11.165 4.2452-15.41 0-4.2452-4.2452-4.2452-11.165 0-15.41 2.1226-2.1226 4.914-3.1836 7.7051-3.1836zm-3.3457 6.0293a1.25 1.25 0 0 1 0.71484 0.19531 1.25 1.25 0 0 1 0.38281 1.7266l-1.7344 2.7207a1.25 1.25 0 0 1-1.7246 0.38086 1.25 1.25 0 0 1-0.38281-1.7246l1.7324-2.7207a1.25 1.25 0 0 1 1.0117-0.57812zm4.6602 0a1.25 1.25 0 0 1 0.71484 0.19531 1.25 1.25 0 0 1 0.38086 1.7266l-4.5996 7.2188a1.25 1.25 0 0 1-1.7266 0.38281 1.25 1.25 0 0 1-0.38086-1.7266l4.5996-7.2188a1.25 1.25 0 0 1 1.0117-0.57812zm4.6582 0a1.25 1.25 0 0 1 0.71484 0.19531 1.25 1.25 0 0 1 0.38281 1.7266l-4.5996 7.2188a1.25 1.25 0 0 1-1.7266 0.38281 1.25 1.25 0 0 1-0.38281-1.7266l4.6016-7.2188a1.25 1.25 0 0 1 1.0098-0.57812z" style="fill-rule:evenodd;fill:url(#linearGradient1004);mix-blend-mode:normal;stroke-width:1.7434"/>
 </g>
</svg>
